<svg enable-background="new 0 0 512 512" viewBox="0 0 512 512" xmlns="http://www.w3.org/2000/svg"><path d="m483.8 28.2c-18.7-18.8-41.4-28.2-67.8-28.2h-320c-26.4 0-49.1 9.4-67.8 28.2-18.8 18.7-28.2 41.4-28.2 67.8v320c0 26.4 9.4 49.1 28.2 67.8 18.7 18.8 41.4 28.2 67.8 28.2h320c26.4 0 49.1-9.4 67.8-28.2 18.8-18.8 28.2-41.4 28.2-67.8v-320c0-26.4-9.4-49.1-28.2-67.8zm-50.8 157.5-204.7 204.6c-4.2 4.2-9.2 6.3-15 6.3s-10.8-2.1-15-6.3l-119.3-119.3c-4.2-4.2-6.3-9.2-6.3-15s2.1-10.8 6.3-15l34-34c4.2-4.2 9.2-6.3 15-6.3s10.8 2.1 15 6.3l70.3 70.3 155.7-155.6c4.2-4.2 9.2-6.3 15-6.3s10.8 2.1 15 6.3l34 34c4.2 4.2 6.3 9.2 6.3 15s-2.1 10.7-6.3 15z" fill="#f0181f"/></svg>