<?xml version="1.0" encoding="utf-8"?>
<!-- Generator: Adobe Illustrator 19.2.0, SVG Export Plug-In . SVG Version: 6.00 Build 0)  -->
<svg version="1.1" id="Layer_1" xmlns="http://www.w3.org/2000/svg" xmlns:xlink="http://www.w3.org/1999/xlink" x="0px" y="0px"
	 viewBox="0 0 512 377" style="enable-background:new 0 0 512 377;" xml:space="preserve">
<g>
	<path d="M478,326.7H34c-4.1,0-7.5-3.4-7.5-7.5V32.8c0-4.1,3.4-7.5,7.5-7.5h444c4.1,0,7.5,3.4,7.5,7.5v286.5
		C485.5,323.4,482.1,326.7,478,326.7z M41.5,311.7h429V40.3h-429V311.7z"/>
	<path d="M181.9,299.7c-68.2,0-123.7-55.5-123.7-123.7S113.7,52.3,181.9,52.3S305.7,107.8,305.7,176S250.2,299.7,181.9,299.7z
		 M181.9,67.3C122,67.3,73.2,116,73.2,176S122,284.7,181.9,284.7S290.7,236,290.7,176S241.9,67.3,181.9,67.3z"/>
	<g>
		<path d="M196,177.8c-4.1,0-7.9-1.6-10.7-4.4l-1.4-1.4c-5.7-5.7-5.9-14.8-0.6-20.8l33.3-51.1c0.3-0.4,0.6-0.8,1-1.2
			c2.9-2.9,6.7-4.4,10.7-4.4s7.9,1.6,10.7,4.4l20.1,20.1c2.9,2.9,4.4,6.7,4.4,10.7c0,4.1-1.6,7.9-4.4,10.7c-0.4,0.4-0.8,0.7-1.3,1
			L206,174C203.2,176.5,199.7,177.8,196,177.8z M228.3,109.5l-32.9,50.5c-0.3,0.4-0.6,0.8-1,1.2c-0.1,0.1-0.1,0.2,0,0.2l1.4,1.4
			c0,0,0.2,0,0.2,0c0.4-0.4,0.8-0.7,1.3-1l51.1-32.1c0,0,0,0,0,0L228.3,109.5C228.4,109.5,228.3,109.5,228.3,109.5z"/>
		<path d="M135.6,257.6c-4.1,0-7.9-1.6-10.7-4.4L104.8,233c-5.9-5.9-5.9-15.5,0-21.5c0.4-0.4,0.8-0.7,1.2-1l51.1-33.3
			c2.8-2.5,6.3-3.8,10.1-3.8c4.1,0,7.9,1.6,10.7,4.4l1.4,1.4c5.7,5.7,5.9,14.8,0.7,20.7l-32.6,51.8c-0.3,0.5-0.6,0.9-1,1.3
			C143.5,256,139.7,257.6,135.6,257.6z M115.4,222.4C115.4,222.4,115.4,222.4,115.4,222.4l20.1,20.1c0,0,0,0,0,0l32.1-51.1
			c0.3-0.5,0.6-0.9,1-1.3c0.1-0.1,0.1-0.2,0-0.2l-1.4-1.4c0,0-0.2,0-0.2,0c-0.4,0.4-0.8,0.7-1.2,1L115.4,222.4z"/>
		<path d="M181.6,194.9c-5.1,0-10-2-13.6-5.6c-7.5-7.5-7.5-19.7,0-27.2c3.6-3.6,8.5-5.6,13.6-5.6s10,2,13.6,5.6
			c7.5,7.5,7.5,19.7,0,27.2C191.5,192.9,186.7,194.9,181.6,194.9z M181.6,171.4c-1.1,0-2.2,0.4-3,1.2c-1.6,1.6-1.6,4.3,0,6
			c0.8,0.8,1.9,1.2,3,1.2s2.2-0.4,3-1.2c1.6-1.6,1.6-4.3,0-6C183.8,171.9,182.7,171.4,181.6,171.4z"/>
		<path d="M228.2,256.9c-4.1,0-7.9-1.6-10.7-4.4c-0.4-0.4-0.7-0.8-1-1.2l-33.3-51.1c-5.3-6-5.1-15.1,0.6-20.8l1.4-1.4
			c2.9-2.9,6.7-4.4,10.7-4.4c3.7,0,7.3,1.4,10.1,3.8l51.1,33.3c0.4,0.3,0.8,0.6,1.2,1c2.9,2.9,4.4,6.7,4.4,10.7
			c0,4.1-1.6,7.9-4.4,10.7L239,252.4C236.1,255.3,232.3,256.9,228.2,256.9z M196,188.5c-0.1,0-0.1,0-0.1,0.1l-1.4,1.4
			c-0.1,0.1-0.1,0.2,0,0.2c0.4,0.4,0.7,0.8,1,1.2l32.9,50.5c0,0,0,0,0,0l19.4-19.4c0,0,0,0,0,0l-50.5-32.9c-0.4-0.3-0.8-0.6-1.2-1
			C196.1,188.5,196,188.5,196,188.5z"/>
		<path d="M167.2,177.8c-3.7,0-7.3-1.4-10.1-3.8L106,140.7c-0.4-0.3-0.8-0.6-1.2-1c-2.9-2.9-4.4-6.7-4.4-10.7
			c0-4.1,1.6-7.9,4.4-10.7l19.4-19.4c2.9-2.9,6.7-4.4,10.7-4.4c4.1,0,7.9,1.6,10.7,4.4c0.4,0.4,0.7,0.8,1,1.2l33.3,51.1
			c5.3,6,5.1,15.1-0.6,20.8l-1.4,1.4C175.1,176.2,171.2,177.8,167.2,177.8z M115.4,128.9l50.5,32.9c0.4,0.3,0.8,0.6,1.2,1
			c0,0,0.2,0,0.2,0l1.4-1.4c0.1-0.1,0.1-0.2,0-0.2c-0.4-0.4-0.7-0.8-1-1.2l-32.9-50.5c0,0,0,0,0,0L115.4,128.9
			C115.4,128.9,115.4,128.9,115.4,128.9z"/>
	</g>
	<g>
		<path d="M151.9,352.5h-59c-4.1,0-7.5-3.4-7.5-7.5v-25.8c0-4.1,3.4-7.5,7.5-7.5h59c4.1,0,7.5,3.4,7.5,7.5V345
			C159.4,349.1,156,352.5,151.9,352.5z M100.4,337.5h44v-10.8h-44V337.5z"/>
		<path d="M419.1,352.5h-59c-4.1,0-7.5-3.4-7.5-7.5v-25.8c0-4.1,3.4-7.5,7.5-7.5h59c4.1,0,7.5,3.4,7.5,7.5V345
			C426.6,349.1,423.3,352.5,419.1,352.5z M367.6,337.5h44v-10.8h-44V337.5z"/>
	</g>
	<path d="M444,138.5H335c-4.1,0-7.5-3.4-7.5-7.5V95c0-4.1,3.4-7.5,7.5-7.5h109c4.1,0,7.5,3.4,7.5,7.5v36
		C451.5,135.1,448.1,138.5,444,138.5z M342.5,123.5h94v-21h-94V123.5z"/>
</g>
</svg>
