<svg enable-background="new 0 0 512 377" viewBox="0 0 512 377" xmlns="http://www.w3.org/2000/svg"><path d="m478 326.7h-444c-4.1 0-7.5-3.4-7.5-7.5v-286.4c0-4.1 3.4-7.5 7.5-7.5h444c4.1 0 7.5 3.4 7.5 7.5v286.5c0 4.1-3.4 7.4-7.5 7.4zm-436.5-15h429v-271.4h-429z"/><path d="m181.9 299.7c-68.2 0-123.7-55.5-123.7-123.7s55.5-123.7 123.7-123.7 123.8 55.5 123.8 123.7-55.5 123.7-123.8 123.7zm0-232.4c-59.9 0-108.7 48.7-108.7 108.7s48.8 108.7 108.7 108.7 108.8-48.7 108.8-108.7-48.8-108.7-108.8-108.7z"/><path d="m196 177.8c-4.1 0-7.9-1.6-10.7-4.4l-1.4-1.4c-5.7-5.7-5.9-14.8-.6-20.8l33.3-51.1c.3-.4.6-.8 1-1.2 2.9-2.9 6.7-4.4 10.7-4.4s7.9 1.6 10.7 4.4l20.1 20.1c2.9 2.9 4.4 6.7 4.4 10.7 0 4.1-1.6 7.9-4.4 10.7-.4.4-.8.7-1.3 1l-51.8 32.6c-2.8 2.5-6.3 3.8-10 3.8zm32.3-68.3-32.9 50.5c-.3.4-.6.8-1 1.2-.1.1-.1.2 0 .2l1.4 1.4h.2c.4-.4.8-.7 1.3-1l51.1-32.1z"/><path d="m135.6 257.6c-4.1 0-7.9-1.6-10.7-4.4l-20.1-20.2c-5.9-5.9-5.9-15.5 0-21.5.4-.4.8-.7 1.2-1l51.1-33.3c2.8-2.5 6.3-3.8 10.1-3.8 4.1 0 7.9 1.6 10.7 4.4l1.4 1.4c5.7 5.7 5.9 14.8.7 20.7l-32.6 51.8c-.3.5-.6.9-1 1.3-2.9 3-6.7 4.6-10.8 4.6zm-20.2-35.2 20.1 20.1 32.1-51.1c.3-.5.6-.9 1-1.3.1-.1.1-.2 0-.2l-1.4-1.4h-.2c-.4.4-.8.7-1.2 1z"/><path d="m181.6 194.9c-5.1 0-10-2-13.6-5.6-7.5-7.5-7.5-19.7 0-27.2 3.6-3.6 8.5-5.6 13.6-5.6s10 2 13.6 5.6c7.5 7.5 7.5 19.7 0 27.2-3.7 3.6-8.5 5.6-13.6 5.6zm0-23.5c-1.1 0-2.2.4-3 1.2-1.6 1.6-1.6 4.3 0 6 .8.8 1.9 1.2 3 1.2s2.2-.4 3-1.2c1.6-1.6 1.6-4.3 0-6-.8-.7-1.9-1.2-3-1.2z"/><path d="m228.2 256.9c-4.1 0-7.9-1.6-10.7-4.4-.4-.4-.7-.8-1-1.2l-33.3-51.1c-5.3-6-5.1-15.1.6-20.8l1.4-1.4c2.9-2.9 6.7-4.4 10.7-4.4 3.7 0 7.3 1.4 10.1 3.8l51.1 33.3c.4.3.8.6 1.2 1 2.9 2.9 4.4 6.7 4.4 10.7 0 4.1-1.6 7.9-4.4 10.7l-19.3 19.3c-2.9 2.9-6.7 4.5-10.8 4.5zm-32.2-68.4c-.1 0-.1 0-.1.1l-1.4 1.4c-.1.1-.1.2 0 .2.4.4.7.8 1 1.2l32.9 50.5 19.4-19.4-50.5-32.9c-.4-.3-.8-.6-1.2-1 0-.1-.1-.1-.1-.1z"/><path d="m167.2 177.8c-3.7 0-7.3-1.4-10.1-3.8l-51.1-33.3c-.4-.3-.8-.6-1.2-1-2.9-2.9-4.4-6.7-4.4-10.7 0-4.1 1.6-7.9 4.4-10.7l19.4-19.4c2.9-2.9 6.7-4.4 10.7-4.4 4.1 0 7.9 1.6 10.7 4.4.4.4.7.8 1 1.2l33.3 51.1c5.3 6 5.1 15.1-.6 20.8l-1.4 1.4c-2.8 2.8-6.7 4.4-10.7 4.4zm-51.8-48.9 50.5 32.9c.4.3.8.6 1.2 1h.2l1.4-1.4c.1-.1.1-.2 0-.2-.4-.4-.7-.8-1-1.2l-32.9-50.5z"/><path d="m151.9 352.5h-59c-4.1 0-7.5-3.4-7.5-7.5v-25.8c0-4.1 3.4-7.5 7.5-7.5h59c4.1 0 7.5 3.4 7.5 7.5v25.8c0 4.1-3.4 7.5-7.5 7.5zm-51.5-15h44v-10.8h-44z"/><path d="m419.1 352.5h-59c-4.1 0-7.5-3.4-7.5-7.5v-25.8c0-4.1 3.4-7.5 7.5-7.5h59c4.1 0 7.5 3.4 7.5 7.5v25.8c0 4.1-3.3 7.5-7.5 7.5zm-51.5-15h44v-10.8h-44z"/><path d="m444 138.5h-109c-4.1 0-7.5-3.4-7.5-7.5v-36c0-4.1 3.4-7.5 7.5-7.5h109c4.1 0 7.5 3.4 7.5 7.5v36c0 4.1-3.4 7.5-7.5 7.5zm-101.5-15h94v-21h-94z"/></svg>