<?xml version="1.0" encoding="utf-8"?>
<!-- Generator: Adobe Illustrator 19.2.0, SVG Export Plug-In . SVG Version: 6.00 Build 0)  -->
<svg version="1.1" id="Layer_1" xmlns="http://www.w3.org/2000/svg" xmlns:xlink="http://www.w3.org/1999/xlink" x="0px" y="0px"
	 viewBox="0 0 66 65.8" style="enable-background:new 0 0 66 65.8;" xml:space="preserve">
<g>
	<g>
		<path d="M3,63.8h24.9c1.1,0,2-0.9,2-2v-4.6h23c0.6,0,1-0.4,1-1V23.4l10.6-10.6c0.8-0.8,0.8-2,0-2.7L60,5.7c-0.7-0.7-2-0.7-2.7,0
			l-3.4,3.4V3.2c0-0.6-0.4-1-1-1h-32c0,0,0,0-0.1,0s-0.2,0-0.3,0.1h-0.1c-0.1,0-0.2,0.1-0.3,0.2l0,0L9.6,13.1l0,0
			c-0.1,0.1-0.1,0.2-0.2,0.3v0.1c0,0.1,0,0.2-0.1,0.3c0,0,0,0,0,0.1V31H3c-1.1,0-2,0.9-2,2v28.8C1,62.9,1.9,63.8,3,63.8z M53.5,12.2
			C53.6,12.2,53.6,12.2,53.5,12.2l1-1l1.5,1.5L41.3,27.3l-1.5-1.5L53.5,12.2z M38.9,27.8l3.4,3.4l-4.8,1.4L38.9,27.8z M44.2,30.2
			l-1.5-1.5L57.4,14l1.5,1.5L44.2,30.2z M58.6,7.1l4.4,4.4l-2.7,2.7L58.1,12l0,0l0,0l-2.2-2.2L58.6,7.1z M19.9,5.6v7.2h-7.2
			L19.9,5.6z M11.3,14.8h9.6c0.6,0,1-0.4,1-1V4.2h29.9V11L37.7,25.2c-0.1,0.1-0.1,0.2-0.2,0.3c0,0,0,0,0,0.1c0,0,0,0,0,0.1l-2.4,8.1
			c-0.1,0.4,0,0.7,0.3,1c0.2,0.2,0.4,0.3,0.7,0.3c0.1,0,0.2,0,0.3,0l8.1-2.4c0,0,0,0,0.1,0c0,0,0,0,0.1,0s0.2-0.1,0.3-0.2l6.9-6.9
			v29.7h-22V33c0-1.1-0.9-2-2-2H11.3V14.8z M3,33h24.9v28.8H3V33z"/>
	</g>
	<g>
		<path d="M23.9,36.5H7c-0.6,0-1,0.4-1,1v6.8c0,0.6,0.4,1,1,1h16.9c0.6,0,1-0.4,1-1v-6.8C24.9,37,24.4,36.5,23.9,36.5z M22.9,43.3H8
			v-4.8h14.9V43.3z"/>
	</g>
	<g>
		<path d="M9,49.3H7c-0.6,0-1,0.4-1,1s0.4,1,1,1h2c0.6,0,1-0.4,1-1S9.6,49.3,9,49.3z"/>
	</g>
	<g>
		<path d="M23.9,49.3h-2c-0.6,0-1,0.4-1,1s0.4,1,1,1h2c0.6,0,1-0.4,1-1S24.4,49.3,23.9,49.3z"/>
	</g>
	<g>
		<path d="M16.4,49.3h-2c-0.6,0-1,0.4-1,1s0.4,1,1,1h2c0.6,0,1-0.4,1-1S17,49.3,16.4,49.3z"/>
	</g>
	<g>
		<path d="M9,56.3H7c-0.6,0-1,0.4-1,1s0.4,1,1,1h2c0.6,0,1-0.4,1-1S9.6,56.3,9,56.3z"/>
	</g>
	<g>
		<path d="M23.9,56.3h-2c-0.6,0-1,0.4-1,1s0.4,1,1,1h2c0.6,0,1-0.4,1-1S24.4,56.3,23.9,56.3z"/>
	</g>
	<g>
		<path d="M16.4,56.3h-2c-0.6,0-1,0.4-1,1s0.4,1,1,1h2c0.6,0,1-0.4,1-1S17,56.3,16.4,56.3z"/>
	</g>
	<g>
		<path d="M33.9,39.1c0,0.6,0.4,1,1,1h12c0.6,0,1-0.4,1-1s-0.4-1-1-1h-12C34.3,38.1,33.9,38.5,33.9,39.1z"/>
	</g>
	<g>
		<path d="M46.9,44.1h-12c-0.6,0-1,0.4-1,1s0.4,1,1,1h12c0.6,0,1-0.4,1-1S47.4,44.1,46.9,44.1z"/>
	</g>
	<g>
		<path d="M46.9,50.1h-12c-0.6,0-1,0.4-1,1s0.4,1,1,1h12c0.6,0,1-0.4,1-1S47.4,50.1,46.9,50.1z"/>
	</g>
	<g>
		<path d="M15.4,20.9h11.4c0.6,0,1-0.4,1-1s-0.4-1-1-1H15.4c-0.6,0-1,0.4-1,1S14.9,20.9,15.4,20.9z"/>
	</g>
	<g>
		<path d="M26.9,24.9H15.4c-0.6,0-1,0.4-1,1s0.4,1,1,1h11.4c0.6,0,1-0.4,1-1C27.9,25.4,27.4,24.9,26.9,24.9z"/>
	</g>
	<g>
		<path d="M26.1,14.8h16.5c0.6,0,1-0.4,1-1s-0.4-1-1-1H26.1c-0.6,0-1,0.4-1,1C25.1,14.4,25.5,14.8,26.1,14.8z"/>
	</g>
	<g>
		<path d="M26.1,9.8h16.5c0.6,0,1-0.4,1-1s-0.4-1-1-1H26.1c-0.6,0-1,0.4-1,1C25.1,9.4,25.5,9.8,26.1,9.8z"/>
	</g>
</g>
</svg>
