<svg enable-background="new 0 0 66 65.8" viewBox="0 0 66 65.8" xmlns="http://www.w3.org/2000/svg"><path d="m3 63.8h24.9c1.1 0 2-.9 2-2v-4.6h23c.6 0 1-.4 1-1v-32.8l10.6-10.6c.8-.8.8-2 0-2.7l-4.5-4.4c-.7-.7-2-.7-2.7 0l-3.4 3.4v-5.9c0-.6-.4-1-1-1h-32s0 0-.1 0-.2 0-.3.1h-.1c-.1 0-.2.1-.3.2l-10.5 10.6c-.1.1-.1.2-.2.3v.1c0 .1 0 .2-.1.3v.1 17.1h-6.3c-1.1 0-2 .9-2 2v28.8c0 1.1.9 2 2 2zm50.5-51.6c.1 0 .1 0 0 0l1-1 1.5 1.5-14.7 14.6-1.5-1.5zm-14.6 15.6 3.4 3.4-4.8 1.4zm5.3 2.4-1.5-1.5 14.7-14.7 1.5 1.5zm14.4-23.1 4.4 4.4-2.7 2.7-2.2-2.2-2.2-2.2zm-38.7-1.5v7.2h-7.2zm-8.6 9.2h9.6c.6 0 1-.4 1-1v-9.6h29.9v6.8l-14.1 14.2c-.1.1-.1.2-.2.3v.1.1l-2.4 8.1c-.1.4 0 .7.3 1 .2.2.4.3.7.3h.3l8.1-2.4h.1.1s.2-.1.3-.2l6.9-6.9v29.7h-22v-22.3c0-1.1-.9-2-2-2h-16.6zm-8.3 18.2h24.9v28.8h-24.9z"/><path d="m23.9 36.5h-16.9c-.6 0-1 .4-1 1v6.8c0 .6.4 1 1 1h16.9c.6 0 1-.4 1-1v-6.8c0-.5-.5-1-1-1zm-1 6.8h-14.9v-4.8h14.9z"/><path d="m9 49.3h-2c-.6 0-1 .4-1 1s.4 1 1 1h2c.6 0 1-.4 1-1s-.4-1-1-1z"/><path d="m23.9 49.3h-2c-.6 0-1 .4-1 1s.4 1 1 1h2c.6 0 1-.4 1-1s-.5-1-1-1z"/><path d="m16.4 49.3h-2c-.6 0-1 .4-1 1s.4 1 1 1h2c.6 0 1-.4 1-1s-.4-1-1-1z"/><path d="m9 56.3h-2c-.6 0-1 .4-1 1s.4 1 1 1h2c.6 0 1-.4 1-1s-.4-1-1-1z"/><path d="m23.9 56.3h-2c-.6 0-1 .4-1 1s.4 1 1 1h2c.6 0 1-.4 1-1s-.5-1-1-1z"/><path d="m16.4 56.3h-2c-.6 0-1 .4-1 1s.4 1 1 1h2c.6 0 1-.4 1-1s-.4-1-1-1z"/><path d="m33.9 39.1c0 .6.4 1 1 1h12c.6 0 1-.4 1-1s-.4-1-1-1h-12c-.6 0-1 .4-1 1z"/><path d="m46.9 44.1h-12c-.6 0-1 .4-1 1s.4 1 1 1h12c.6 0 1-.4 1-1s-.5-1-1-1z"/><path d="m46.9 50.1h-12c-.6 0-1 .4-1 1s.4 1 1 1h12c.6 0 1-.4 1-1s-.5-1-1-1z"/><path d="m15.4 20.9h11.4c.6 0 1-.4 1-1s-.4-1-1-1h-11.4c-.6 0-1 .4-1 1s.5 1 1 1z"/><path d="m26.9 24.9h-11.5c-.6 0-1 .4-1 1s.4 1 1 1h11.4c.6 0 1-.4 1-1 .1-.5-.4-1-.9-1z"/><path d="m26.1 14.8h16.5c.6 0 1-.4 1-1s-.4-1-1-1h-16.5c-.6 0-1 .4-1 1s.4 1 1 1z"/><path d="m26.1 9.8h16.5c.6 0 1-.4 1-1s-.4-1-1-1h-16.5c-.6 0-1 .4-1 1s.4 1 1 1z"/></svg>